<mxfile host="app.diagrams.net" agent="Mozilla/5.0 (Windows NT 10.0; Win64; x64) AppleWebKit/537.36 (KHTML, like Gecko) Chrome/132.0.0.0 Safari/537.36 Edg/132.0.0.0" version="26.0.6">
  <diagram name="Page-1" id="U05NJMNVuZ4Qm2QIkY17">
    <mxGraphModel dx="1761" dy="2320" grid="1" gridSize="10" guides="1" tooltips="1" connect="1" arrows="1" fold="1" page="1" pageScale="1" pageWidth="850" pageHeight="1100" math="0" shadow="0">
      <root>
        <mxCell id="0" />
        <mxCell id="1" parent="0" />
        <mxCell id="G33SIR9zwYlcQDL-yh5C-40" style="edgeStyle=orthogonalEdgeStyle;rounded=0;orthogonalLoop=1;jettySize=auto;html=1;fillColor=#fff2cc;strokeColor=#d6b656;strokeWidth=3;exitX=0;exitY=0.75;exitDx=0;exitDy=0;entryX=1;entryY=0.5;entryDx=0;entryDy=0;" edge="1" parent="1" source="G33SIR9zwYlcQDL-yh5C-22" target="5DTLE2oIVUUULj5y9KMx-1">
          <mxGeometry relative="1" as="geometry">
            <mxPoint x="340" y="840" as="sourcePoint" />
            <mxPoint x="-350" y="930" as="targetPoint" />
            <Array as="points">
              <mxPoint x="300" y="864" />
              <mxPoint x="300" y="930" />
            </Array>
          </mxGeometry>
        </mxCell>
        <mxCell id="5DTLE2oIVUUULj5y9KMx-1" value="&lt;div style=&quot;color: rgb(212, 212, 212); background-color: rgb(30, 30, 30); font-family: Consolas, &amp;quot;Courier New&amp;quot;, monospace; font-size: 14px; line-height: 19px; white-space: pre;&quot;&gt;Dockerfile&lt;/div&gt;" style="rounded=1;whiteSpace=wrap;html=1;fillColor=#fff2cc;strokeColor=#d6b656;" parent="1" vertex="1">
          <mxGeometry x="-470" y="900" width="120" height="60" as="geometry" />
        </mxCell>
        <mxCell id="G33SIR9zwYlcQDL-yh5C-32" value="" style="edgeStyle=orthogonalEdgeStyle;rounded=0;orthogonalLoop=1;jettySize=auto;html=1;" edge="1" parent="1" source="G33SIR9zwYlcQDL-yh5C-2" target="G33SIR9zwYlcQDL-yh5C-31">
          <mxGeometry relative="1" as="geometry" />
        </mxCell>
        <mxCell id="G33SIR9zwYlcQDL-yh5C-2" value="&lt;div style=&quot;color: rgb(212, 212, 212); background-color: rgb(30, 30, 30); font-family: Consolas, &amp;quot;Courier New&amp;quot;, monospace; font-size: 14px; line-height: 19px; white-space: pre;&quot;&gt;odk.sh&lt;/div&gt;" style="rounded=1;whiteSpace=wrap;html=1;fillColor=#f8cecc;strokeColor=#b85450;" vertex="1" parent="1">
          <mxGeometry x="-470" y="980" width="120" height="60" as="geometry" />
        </mxCell>
        <mxCell id="G33SIR9zwYlcQDL-yh5C-36" style="edgeStyle=orthogonalEdgeStyle;rounded=0;orthogonalLoop=1;jettySize=auto;html=1;entryX=0;entryY=0.5;entryDx=0;entryDy=0;fillColor=#e1d5e7;strokeColor=#9673a6;strokeWidth=3;" edge="1" parent="1" source="G33SIR9zwYlcQDL-yh5C-3" target="G33SIR9zwYlcQDL-yh5C-21">
          <mxGeometry relative="1" as="geometry">
            <Array as="points">
              <mxPoint x="-10" y="1160" />
              <mxPoint x="-10" y="1010" />
            </Array>
          </mxGeometry>
        </mxCell>
        <mxCell id="G33SIR9zwYlcQDL-yh5C-3" value="&lt;div style=&quot;color: rgb(212, 212, 212); background-color: rgb(30, 30, 30); font-family: Consolas, &amp;quot;Courier New&amp;quot;, monospace; font-size: 14px; line-height: 19px; white-space: pre;&quot;&gt;Makefile&lt;/div&gt;" style="rounded=1;whiteSpace=wrap;html=1;fillColor=#e1d5e7;strokeColor=#9673a6;" vertex="1" parent="1">
          <mxGeometry x="-470" y="1130" width="120" height="60" as="geometry" />
        </mxCell>
        <mxCell id="G33SIR9zwYlcQDL-yh5C-13" style="edgeStyle=orthogonalEdgeStyle;rounded=0;orthogonalLoop=1;jettySize=auto;html=1;" edge="1" parent="1" source="G33SIR9zwYlcQDL-yh5C-4" target="G33SIR9zwYlcQDL-yh5C-12">
          <mxGeometry relative="1" as="geometry" />
        </mxCell>
        <mxCell id="G33SIR9zwYlcQDL-yh5C-4" value="&lt;div style=&quot;color: rgb(212, 212, 212); background-color: rgb(30, 30, 30); font-family: Consolas, &amp;quot;Courier New&amp;quot;, monospace; font-size: 14px; line-height: 19px; white-space: pre;&quot;&gt;odk/&lt;/div&gt;" style="shape=hexagon;perimeter=hexagonPerimeter2;whiteSpace=wrap;html=1;fixedSize=1;" vertex="1" parent="1">
          <mxGeometry x="110" y="570" width="120" height="80" as="geometry" />
        </mxCell>
        <mxCell id="G33SIR9zwYlcQDL-yh5C-15" style="edgeStyle=orthogonalEdgeStyle;rounded=0;orthogonalLoop=1;jettySize=auto;html=1;entryX=0;entryY=0.5;entryDx=0;entryDy=0;" edge="1" parent="1" source="G33SIR9zwYlcQDL-yh5C-5" target="G33SIR9zwYlcQDL-yh5C-7">
          <mxGeometry relative="1" as="geometry" />
        </mxCell>
        <mxCell id="G33SIR9zwYlcQDL-yh5C-16" style="edgeStyle=orthogonalEdgeStyle;rounded=0;orthogonalLoop=1;jettySize=auto;html=1;entryX=0;entryY=0.5;entryDx=0;entryDy=0;" edge="1" parent="1" source="G33SIR9zwYlcQDL-yh5C-5" target="G33SIR9zwYlcQDL-yh5C-6">
          <mxGeometry relative="1" as="geometry" />
        </mxCell>
        <mxCell id="G33SIR9zwYlcQDL-yh5C-5" value="&lt;div style=&quot;color: rgb(212, 212, 212); background-color: rgb(30, 30, 30); font-family: Consolas, &amp;quot;Courier New&amp;quot;, monospace; font-size: 14px; line-height: 19px; white-space: pre;&quot;&gt;docker/&lt;/div&gt;" style="shape=hexagon;perimeter=hexagonPerimeter2;whiteSpace=wrap;html=1;fixedSize=1;" vertex="1" parent="1">
          <mxGeometry x="-470" y="695" width="120" height="80" as="geometry" />
        </mxCell>
        <mxCell id="G33SIR9zwYlcQDL-yh5C-17" style="edgeStyle=orthogonalEdgeStyle;rounded=0;orthogonalLoop=1;jettySize=auto;html=1;entryX=0;entryY=0.5;entryDx=0;entryDy=0;" edge="1" parent="1" source="G33SIR9zwYlcQDL-yh5C-6" target="G33SIR9zwYlcQDL-yh5C-8">
          <mxGeometry relative="1" as="geometry" />
        </mxCell>
        <mxCell id="G33SIR9zwYlcQDL-yh5C-18" style="edgeStyle=orthogonalEdgeStyle;rounded=0;orthogonalLoop=1;jettySize=auto;html=1;entryX=0;entryY=0.5;entryDx=0;entryDy=0;" edge="1" parent="1" source="G33SIR9zwYlcQDL-yh5C-6" target="G33SIR9zwYlcQDL-yh5C-9">
          <mxGeometry relative="1" as="geometry" />
        </mxCell>
        <mxCell id="G33SIR9zwYlcQDL-yh5C-6" value="&lt;div style=&quot;color: rgb(212, 212, 212); background-color: rgb(30, 30, 30); font-family: Consolas, &amp;quot;Courier New&amp;quot;, monospace; font-size: 14px; line-height: 19px; white-space: pre;&quot;&gt;builder/&lt;/div&gt;" style="shape=hexagon;perimeter=hexagonPerimeter2;whiteSpace=wrap;html=1;fixedSize=1;" vertex="1" parent="1">
          <mxGeometry x="-350" y="615" width="120" height="80" as="geometry" />
        </mxCell>
        <mxCell id="G33SIR9zwYlcQDL-yh5C-19" style="edgeStyle=orthogonalEdgeStyle;rounded=0;orthogonalLoop=1;jettySize=auto;html=1;entryX=0;entryY=0.5;entryDx=0;entryDy=0;" edge="1" parent="1" source="G33SIR9zwYlcQDL-yh5C-7" target="G33SIR9zwYlcQDL-yh5C-10">
          <mxGeometry relative="1" as="geometry" />
        </mxCell>
        <mxCell id="G33SIR9zwYlcQDL-yh5C-20" style="edgeStyle=orthogonalEdgeStyle;rounded=0;orthogonalLoop=1;jettySize=auto;html=1;" edge="1" parent="1" source="G33SIR9zwYlcQDL-yh5C-7" target="G33SIR9zwYlcQDL-yh5C-11">
          <mxGeometry relative="1" as="geometry" />
        </mxCell>
        <mxCell id="G33SIR9zwYlcQDL-yh5C-7" value="&lt;div style=&quot;color: rgb(212, 212, 212); background-color: rgb(30, 30, 30); font-family: Consolas, &amp;quot;Courier New&amp;quot;, monospace; font-size: 14px; line-height: 19px; white-space: pre;&quot;&gt;odklite/&lt;/div&gt;" style="shape=hexagon;perimeter=hexagonPerimeter2;whiteSpace=wrap;html=1;fixedSize=1;" vertex="1" parent="1">
          <mxGeometry x="-350" y="760" width="120" height="80" as="geometry" />
        </mxCell>
        <mxCell id="G33SIR9zwYlcQDL-yh5C-41" style="edgeStyle=orthogonalEdgeStyle;rounded=0;orthogonalLoop=1;jettySize=auto;html=1;fillColor=#fff2cc;strokeColor=#d6b656;strokeWidth=3;exitX=0;exitY=0.5;exitDx=0;exitDy=0;" edge="1" parent="1" source="G33SIR9zwYlcQDL-yh5C-22" target="G33SIR9zwYlcQDL-yh5C-8">
          <mxGeometry relative="1" as="geometry">
            <Array as="points">
              <mxPoint y="850" />
              <mxPoint y="620" />
            </Array>
          </mxGeometry>
        </mxCell>
        <mxCell id="G33SIR9zwYlcQDL-yh5C-42" style="edgeStyle=orthogonalEdgeStyle;rounded=0;orthogonalLoop=1;jettySize=auto;html=1;fillColor=#fff2cc;strokeColor=#d6b656;strokeWidth=3;exitX=0;exitY=0.5;exitDx=0;exitDy=0;" edge="1" parent="1" source="G33SIR9zwYlcQDL-yh5C-23" target="G33SIR9zwYlcQDL-yh5C-8">
          <mxGeometry relative="1" as="geometry">
            <Array as="points">
              <mxPoint x="290" y="910" />
              <mxPoint x="290" y="860" />
              <mxPoint x="-10" y="860" />
              <mxPoint x="-10" y="620" />
            </Array>
          </mxGeometry>
        </mxCell>
        <mxCell id="G33SIR9zwYlcQDL-yh5C-8" value="&lt;div style=&quot;color: rgb(212, 212, 212); background-color: rgb(30, 30, 30); font-family: Consolas, &amp;quot;Courier New&amp;quot;, monospace; font-size: 14px; line-height: 19px; white-space: pre;&quot;&gt;Dockerfile&lt;/div&gt;" style="rounded=1;whiteSpace=wrap;html=1;fillColor=#fff2cc;strokeColor=#d6b656;" vertex="1" parent="1">
          <mxGeometry x="-200" y="590" width="120" height="60" as="geometry" />
        </mxCell>
        <mxCell id="G33SIR9zwYlcQDL-yh5C-9" value="&lt;div style=&quot;color: rgb(212, 212, 212); background-color: rgb(30, 30, 30); font-family: Consolas, &amp;quot;Courier New&amp;quot;, monospace; font-size: 14px; line-height: 19px; white-space: pre;&quot;&gt;Makefile&lt;/div&gt;" style="rounded=1;whiteSpace=wrap;html=1;" vertex="1" parent="1">
          <mxGeometry x="-200" y="660" width="120" height="60" as="geometry" />
        </mxCell>
        <mxCell id="G33SIR9zwYlcQDL-yh5C-10" value="&lt;div style=&quot;color: rgb(212, 212, 212); background-color: rgb(30, 30, 30); font-family: Consolas, &amp;quot;Courier New&amp;quot;, monospace; font-size: 14px; line-height: 19px; white-space: pre;&quot;&gt;Dockerfile&lt;/div&gt;" style="rounded=1;whiteSpace=wrap;html=1;fillColor=#fff2cc;strokeColor=#d6b656;" vertex="1" parent="1">
          <mxGeometry x="-200" y="735" width="120" height="60" as="geometry" />
        </mxCell>
        <mxCell id="G33SIR9zwYlcQDL-yh5C-11" value="&lt;div style=&quot;color: rgb(212, 212, 212); background-color: rgb(30, 30, 30); font-family: Consolas, &amp;quot;Courier New&amp;quot;, monospace; font-size: 14px; line-height: 19px; white-space: pre;&quot;&gt;Makefile&lt;/div&gt;" style="rounded=1;whiteSpace=wrap;html=1;" vertex="1" parent="1">
          <mxGeometry x="-200" y="805" width="120" height="60" as="geometry" />
        </mxCell>
        <mxCell id="G33SIR9zwYlcQDL-yh5C-12" value="&lt;div style=&quot;color: rgb(212, 212, 212); background-color: rgb(30, 30, 30); font-family: Consolas, &amp;quot;Courier New&amp;quot;, monospace; font-size: 14px; line-height: 19px; white-space: pre;&quot;&gt;odk.py&lt;/div&gt;" style="rounded=1;whiteSpace=wrap;html=1;fillColor=#fff2cc;strokeColor=#d6b656;" vertex="1" parent="1">
          <mxGeometry x="250" y="580" width="120" height="60" as="geometry" />
        </mxCell>
        <mxCell id="G33SIR9zwYlcQDL-yh5C-38" style="edgeStyle=orthogonalEdgeStyle;rounded=0;orthogonalLoop=1;jettySize=auto;html=1;entryX=0;entryY=0.75;entryDx=0;entryDy=0;fillColor=#ffe6cc;strokeColor=#d79b00;strokeWidth=3;" edge="1" parent="1" source="G33SIR9zwYlcQDL-yh5C-21" target="G33SIR9zwYlcQDL-yh5C-24">
          <mxGeometry relative="1" as="geometry" />
        </mxCell>
        <mxCell id="G33SIR9zwYlcQDL-yh5C-39" style="edgeStyle=orthogonalEdgeStyle;rounded=0;orthogonalLoop=1;jettySize=auto;html=1;entryX=0;entryY=0.5;entryDx=0;entryDy=0;fillColor=#ffe6cc;strokeColor=#d79b00;strokeWidth=3;" edge="1" parent="1" source="G33SIR9zwYlcQDL-yh5C-21" target="G33SIR9zwYlcQDL-yh5C-25">
          <mxGeometry relative="1" as="geometry" />
        </mxCell>
        <mxCell id="G33SIR9zwYlcQDL-yh5C-21" value="&lt;div style=&quot;color: rgb(212, 212, 212); background-color: rgb(30, 30, 30); font-family: Consolas, &amp;quot;Courier New&amp;quot;, monospace; font-size: 14px; line-height: 19px; white-space: pre;&quot;&gt;update-constraints.sh&lt;/div&gt;" style="shape=step;perimeter=stepPerimeter;whiteSpace=wrap;html=1;fixedSize=1;fillColor=#ffe6cc;strokeColor=#d79b00;" vertex="1" parent="1">
          <mxGeometry x="110" y="970" width="120" height="80" as="geometry" />
        </mxCell>
        <mxCell id="G33SIR9zwYlcQDL-yh5C-22" value="&lt;div style=&quot;color: rgb(212, 212, 212); background-color: rgb(30, 30, 30); font-family: Consolas, &amp;quot;Courier New&amp;quot;, monospace; font-size: 14px; line-height: 19px; white-space: pre;&quot;&gt;requirements.txt.full&lt;/div&gt;" style="shape=parallelogram;perimeter=parallelogramPerimeter;whiteSpace=wrap;html=1;fixedSize=1;" vertex="1" parent="1">
          <mxGeometry x="330" y="820" width="120" height="60" as="geometry" />
        </mxCell>
        <mxCell id="G33SIR9zwYlcQDL-yh5C-23" value="&lt;div style=&quot;color: rgb(212, 212, 212); background-color: rgb(30, 30, 30); font-family: Consolas, &amp;quot;Courier New&amp;quot;, monospace; font-size: 14px; line-height: 19px; white-space: pre;&quot;&gt;requirements.txt.lite&lt;/div&gt;" style="shape=parallelogram;perimeter=parallelogramPerimeter;whiteSpace=wrap;html=1;fixedSize=1;" vertex="1" parent="1">
          <mxGeometry x="330" y="880" width="120" height="60" as="geometry" />
        </mxCell>
        <mxCell id="G33SIR9zwYlcQDL-yh5C-43" style="edgeStyle=orthogonalEdgeStyle;rounded=0;orthogonalLoop=1;jettySize=auto;html=1;entryX=1;entryY=0.5;entryDx=0;entryDy=0;fillColor=#fff2cc;strokeColor=#d6b656;strokeWidth=3;" edge="1" parent="1" source="G33SIR9zwYlcQDL-yh5C-24" target="G33SIR9zwYlcQDL-yh5C-8">
          <mxGeometry relative="1" as="geometry">
            <Array as="points">
              <mxPoint x="280" y="980" />
              <mxPoint x="280" y="870" />
              <mxPoint x="-20" y="870" />
              <mxPoint x="-20" y="620" />
            </Array>
          </mxGeometry>
        </mxCell>
        <mxCell id="G33SIR9zwYlcQDL-yh5C-24" value="&lt;div style=&quot;color: rgb(212, 212, 212); background-color: rgb(30, 30, 30); font-family: Consolas, &amp;quot;Courier New&amp;quot;, monospace; font-size: 14px; line-height: 19px; white-space: pre;&quot;&gt;constraints.txt&lt;/div&gt;" style="shape=parallelogram;perimeter=parallelogramPerimeter;whiteSpace=wrap;html=1;fixedSize=1;" vertex="1" parent="1">
          <mxGeometry x="330" y="950" width="120" height="60" as="geometry" />
        </mxCell>
        <mxCell id="G33SIR9zwYlcQDL-yh5C-44" style="edgeStyle=orthogonalEdgeStyle;rounded=0;orthogonalLoop=1;jettySize=auto;html=1;exitX=0.137;exitY=0.18;exitDx=0;exitDy=0;fillColor=#fff2cc;strokeColor=#d6b656;strokeWidth=3;exitPerimeter=0;" edge="1" parent="1" source="G33SIR9zwYlcQDL-yh5C-25">
          <mxGeometry relative="1" as="geometry">
            <mxPoint x="-80" y="620.0000000000005" as="targetPoint" />
            <Array as="points">
              <mxPoint x="270" y="1021" />
              <mxPoint x="270" y="880" />
              <mxPoint x="-30" y="880" />
              <mxPoint x="-30" y="620" />
            </Array>
          </mxGeometry>
        </mxCell>
        <mxCell id="G33SIR9zwYlcQDL-yh5C-25" value="&lt;div style=&quot;color: rgb(212, 212, 212); background-color: rgb(30, 30, 30); font-family: Consolas, &amp;quot;Courier New&amp;quot;, monospace; font-size: 14px; line-height: 19px; white-space: pre;&quot;&gt;pip-constraints.txt&lt;/div&gt;" style="shape=parallelogram;perimeter=parallelogramPerimeter;whiteSpace=wrap;html=1;fixedSize=1;" vertex="1" parent="1">
          <mxGeometry x="330" y="1010" width="120" height="60" as="geometry" />
        </mxCell>
        <mxCell id="G33SIR9zwYlcQDL-yh5C-26" value="&lt;div style=&quot;color: rgb(212, 212, 212); background-color: rgb(30, 30, 30); font-family: Consolas, &amp;quot;Courier New&amp;quot;, monospace; font-size: 14px; line-height: 19px; white-space: pre;&quot;&gt;template/&lt;/div&gt;" style="shape=hexagon;perimeter=hexagonPerimeter2;whiteSpace=wrap;html=1;fixedSize=1;" vertex="1" parent="1">
          <mxGeometry x="110" y="-20" width="120" height="80" as="geometry" />
        </mxCell>
        <mxCell id="G33SIR9zwYlcQDL-yh5C-35" style="edgeStyle=orthogonalEdgeStyle;rounded=0;orthogonalLoop=1;jettySize=auto;html=1;entryX=0;entryY=0.5;entryDx=0;entryDy=0;" edge="1" parent="1" source="G33SIR9zwYlcQDL-yh5C-27" target="G33SIR9zwYlcQDL-yh5C-33">
          <mxGeometry relative="1" as="geometry" />
        </mxCell>
        <mxCell id="G33SIR9zwYlcQDL-yh5C-27" value="&lt;div style=&quot;color: rgb(212, 212, 212); background-color: rgb(30, 30, 30); font-family: Consolas, &amp;quot;Courier New&amp;quot;, monospace; font-size: 14px; line-height: 19px; white-space: pre;&quot;&gt;seed-via-docker.bat&lt;/div&gt;" style="shape=step;perimeter=stepPerimeter;whiteSpace=wrap;html=1;fixedSize=1;fillColor=#fff2cc;strokeColor=#d6b656;" vertex="1" parent="1">
          <mxGeometry x="250" y="650" width="120" height="80" as="geometry" />
        </mxCell>
        <mxCell id="G33SIR9zwYlcQDL-yh5C-34" value="" style="edgeStyle=orthogonalEdgeStyle;rounded=0;orthogonalLoop=1;jettySize=auto;html=1;" edge="1" parent="1" source="G33SIR9zwYlcQDL-yh5C-28" target="G33SIR9zwYlcQDL-yh5C-33">
          <mxGeometry relative="1" as="geometry" />
        </mxCell>
        <mxCell id="G33SIR9zwYlcQDL-yh5C-28" value="&lt;div style=&quot;color: rgb(212, 212, 212); background-color: rgb(30, 30, 30); font-family: Consolas, &amp;quot;Courier New&amp;quot;, monospace; font-size: 14px; line-height: 19px; white-space: pre;&quot;&gt;seed-via-docker.sh&lt;/div&gt;" style="shape=step;perimeter=stepPerimeter;whiteSpace=wrap;html=1;fixedSize=1;fillColor=#fff2cc;strokeColor=#d6b656;" vertex="1" parent="1">
          <mxGeometry x="250" y="730" width="120" height="80" as="geometry" />
        </mxCell>
        <mxCell id="G33SIR9zwYlcQDL-yh5C-31" value="&#xa;&lt;div style=&quot;color: #d4d4d4;background-color: #1e1e1e;font-family: Consolas, &#39;Courier New&#39;, monospace;font-weight: normal;font-size: 14px;line-height: 19px;white-space: pre;&quot;&gt;&lt;div&gt;&lt;span style=&quot;color: #d4d4d4;&quot;&gt;docker &lt;/span&gt;&lt;span style=&quot;color: #ce9178;&quot;&gt;run&lt;/span&gt;&lt;/div&gt;&lt;/div&gt;&#xa;&#xa;" style="rhombus;whiteSpace=wrap;html=1;rounded=1;" vertex="1" parent="1">
          <mxGeometry x="-250" y="970" width="80" height="80" as="geometry" />
        </mxCell>
        <mxCell id="G33SIR9zwYlcQDL-yh5C-33" value="&#xa;&lt;div style=&quot;color: #d4d4d4;background-color: #1e1e1e;font-family: Consolas, &#39;Courier New&#39;, monospace;font-weight: normal;font-size: 14px;line-height: 19px;white-space: pre;&quot;&gt;&lt;div&gt;&lt;span style=&quot;color: #d4d4d4;&quot;&gt;docker &lt;/span&gt;&lt;span style=&quot;color: #ce9178;&quot;&gt;run&lt;/span&gt;&lt;/div&gt;&lt;/div&gt;&#xa;&#xa;" style="rhombus;whiteSpace=wrap;html=1;" vertex="1" parent="1">
          <mxGeometry x="470" y="690" width="80" height="80" as="geometry" />
        </mxCell>
      </root>
    </mxGraphModel>
  </diagram>
</mxfile>
